<svg xmlns="http://www.w3.org/2000/svg" viewBox="0 0 276.18 206.64"><defs><style>.cls-1{fill:#c5e879;}.cls-2{font-size:31.06px;font-family:LeagueSpartan-Bold, League Spartan;font-weight:700;}.cls-3{letter-spacing:-0.01em;}.cls-4{letter-spacing:0em;}.cls-5{letter-spacing:0em;}.cls-6{letter-spacing:0em;}.cls-7{letter-spacing:0em;}.cls-8{letter-spacing:0em;}.cls-9{fill:#70b224;}.cls-10{fill:#c9982b;}</style></defs><title>Asset 4</title><g id="Layer_2" data-name="Layer 2"><g id="Layer_1-2" data-name="Layer 1"><rect class="cls-1" width="276.18" height="206.64"/><text class="cls-2" transform="translate(64.01 103.29)"><tspan class="cls-3">A</tspan><tspan class="cls-4" x="24.17" y="0">v</tspan><tspan class="cls-5" x="43.65" y="0">o</tspan><tspan class="cls-6" x="64.18" y="0">c</tspan><tspan x="79.28" y="0">ado</tspan><tspan x="42.87" y="37.28">N</tspan><tspan class="cls-7" x="68.53" y="37.28">e</tspan><tspan class="cls-8" x="87.11" y="37.28">t</tspan></text><path class="cls-9" d="M217.87,56.52c-3.29-2.77-2.28-8.27.39-11.65s6.56-5.63,9.21-9c3.22-4.11,4.33-9.49,7-14,4.5-7.63,14.2-12.21,22.67-9.66s14.09,12.87,10.6,21c-2.47,5.77-8.42,9.26-14.33,11.4s-12.21,3.35-17.64,6.5c-2.92,1.7-5.52,3.92-8.54,5.43s-6.72,2.22-9.74.72"/><path d="M218.4,56c-6.17-6.51,3.26-13.19,7.42-17.24,3.6-3.51,5.29-7.84,7.27-12.36C238,15.24,252.45,6.53,263,16.6c4,3.78,6.12,9.9,4.43,15.25-2,6.3-8.43,9.91-14.24,12-5.15,1.9-10.58,3-15.55,5.4-6.4,3.07-12.16,10.11-20,7.25-.91-.33-1.3,1.12-.4,1.45,8,2.94,13.75-3.66,20.37-7,7.71-3.94,16.78-4.6,24-9.6,9.81-6.8,10.43-20.22.51-27.44s-23.8-1.11-29.09,8.95c-1.95,3.7-3,7.85-5.33,11.34-2.7,4-7.1,6.32-10,10.14s-3.89,9-.39,12.71c.67.7,1.73-.36,1.06-1.06Z"/><circle class="cls-10" cx="252.15" cy="26.7" r="7.77" transform="translate(15.14 116.81) rotate(-26.86)"/><path class="cls-9" d="M58.47,56.62c-2.22,3.69-7.81,3.56-11.56,1.46s-6.6-5.58-10.36-7.67C32,47.87,26.49,47.63,21.63,45.71,13.39,42.48,7.33,33.63,8.51,24.85S19,8.9,27.58,11.06c6.09,1.53,10.48,6.85,13.52,12.35s5.24,11.53,9.21,16.39c2.14,2.61,4.75,4.83,6.71,7.58s3.25,6.28,2.25,9.51"/><path d="M57.82,56.24C52.5,63.33,44.18,55,39.76,51.66c-3.86-2.9-8-4-12.66-5.1C21,45,15.77,42.39,12.19,37S8,24.66,11.43,19.07c3.21-5.24,9.81-8.78,16-7.29s10.19,6.85,13.07,12,5,10.92,8.69,15.72c4,5.19,11,9.7,9.41,17.18-.2.94,1.25,1.34,1.45.4,1.51-7.18-3.75-11.62-8.05-16.54-5.88-6.72-8-15.62-13.51-22.59C34.56,13,29,9.17,22.41,10.08A17.83,17.83,0,0,0,9.48,19.46c-6.2,11.88,3.5,24.64,14.94,28,4.51,1.31,9.1,1.86,13.13,4.48,3.47,2.26,6.19,5.68,10.05,7.35C51.67,61,56.35,60.68,59.12,57c.58-.77-.72-1.52-1.3-.76Z"/><circle class="cls-10" cx="23.61" cy="27.48" r="7.77" transform="translate(-11.64 19.1) rotate(-35.96)"/><path class="cls-9" d="M52.51,148.67c3.59,2.37,3.22,8,1,11.61s-5.86,6.35-8.1,10c-2.72,4.46-3.2,9.92-5.32,14.7-3.59,8.1-12.68,13.78-21.4,12.22s-15.49-11.15-13-19.64c1.79-6,7.29-10.18,12.91-13s11.74-4.74,16.77-8.5c2.7-2,5-4.53,7.86-6.38s6.41-3,9.59-1.84"/><path d="M52,149.2c6.86,5.73-1.52,13.42-5.25,18-3,3.72-4.29,7.89-5.62,12.44-1.78,6.07-4.66,11.12-10.22,14.47s-12.51,3.63-17.92,0c-5.11-3.45-8.31-10.18-6.56-16.26s7.31-9.88,12.57-12.53,11.13-4.54,16.07-8c5.39-3.79,10.11-10.54,17.57-8.64a.75.75,0,0,0,.4-1.45c-7.1-1.81-11.78,3.31-16.86,7.37-7.29,5.84-16.85,7.55-24.17,13.3-9.37,7.36-10.17,20.45.23,27.52s23.87.31,28.56-10.14c1.9-4.24,2.39-9,4.49-13.16,2-3.91,5.46-6.54,8-10.06,3-4.2,4.21-10.19-.17-13.85-.74-.61-1.8.44-1.06,1.06Z"/><circle class="cls-10" cx="21.91" cy="182.26" r="7.77" transform="translate(-96.99 42.4) rotate(-33.51)"/><path class="cls-9" d="M218.21,153.2c2.32-3.62,7.91-3.34,11.6-1.12s6.43,5.77,10.14,8c4.5,2.66,10,3.07,14.77,5.11,8.15,3.47,14,12.49,12.52,21.23S256.3,202,247.78,199.62c-6-1.7-10.28-7.15-13.16-12.73s-4.9-11.68-8.74-16.65c-2.06-2.67-4.6-5-6.49-7.77s-3.07-6.37-2-9.57"/><path d="M218.74,153.73c5.67-7,13.51,1.37,18,5,3.79,3,7.92,4.18,12.51,5.45,6.09,1.69,11.2,4.5,14.61,10s3.81,12.44.23,17.92c-3.36,5.14-10.07,8.49-16.16,6.8s-10-7.14-12.71-12.38-4.7-11.07-8.24-16c-3.86-5.33-10.69-10-8.89-17.45.23-.94-1.22-1.34-1.45-.4-1.71,7.12,3.45,11.74,7.6,16.75,5.94,7.2,7.79,16.74,13.64,24,7.48,9.27,20.58,9.9,27.52-.59s0-23.87-10.52-28.42c-4.27-1.85-9-2.26-13.22-4.3-3.92-1.92-6.63-5.37-10.17-7.81-4.24-2.91-10.26-4.08-13.85.36-.6.74.45,1.81,1.06,1.06Z"/><circle class="cls-10" cx="252.22" cy="183.32" r="7.77" transform="translate(-59.45 174.1) rotate(-34.32)"/></g></g></svg>