<svg xmlns="http://www.w3.org/2000/svg" xmlns:xlink="http://www.w3.org/1999/xlink" viewBox="0 0 276.18 206.64"><defs><style>.cls-1{fill:none;}.cls-2{fill:#605de8;}.cls-3{font-size:31.06px;fill:#fff;font-family:LeagueSpartan-Bold, League Spartan;font-weight:700;}.cls-4{letter-spacing:0.01em;}.cls-5{letter-spacing:-0.05em;}.cls-6{letter-spacing:0em;}.cls-7{letter-spacing:-0.03em;}.cls-8{fill:#70421c;}.cls-9{fill:#c9982b;}.cls-10{fill:#44721c;}.cls-11{clip-path:url(#clip-path);}</style><clipPath id="clip-path"><rect class="cls-1" x="77.11" y="115.72" width="128.14" height="37.28"/></clipPath></defs><title>Asset 5</title><g id="Layer_2" data-name="Layer 2"><g id="Layer_1-2" data-name="Layer 1"><rect class="cls-2" width="276.18" height="206.64"/><text class="cls-3" transform="translate(41.35 51.35)"><tspan class="cls-4">L</tspan><tspan class="cls-5" x="18.02" y="0">A</tspan><tspan class="cls-6" x="40.88" y="0">TE NIG</tspan><tspan class="cls-5" x="146.87" y="0">H</tspan><tspan x="169.05" y="0">T</tspan><tspan x="34.92" y="37.28">SN</tspan><tspan class="cls-7" x="81.45" y="37.28">A</tspan><tspan x="104.81" y="37.28">CK</tspan></text><path class="cls-8" d="M117.79,129.64a1.5,1.5,0,0,0,0-3,1.5,1.5,0,0,0,0,3Z"/><path class="cls-8" d="M146.78,140a1.5,1.5,0,0,0,0-3,1.5,1.5,0,0,0,0,3Z"/></g><g id="Layer_2-2" data-name="Layer 2"><rect class="cls-9" x="96.3" y="162.31" width="83.87" height="31.06" rx="12" ry="12"/><path class="cls-10" d="M143.92,156.5c-6.4-3.8-14,5.13-21.28,3.62-3.5-.73-6.45-3.85-10-3.49-2.68.27-4.79,2.48-7.41,3.07-3.32.75-7.31-1.06-9.93,1.12s-1.47,6.39,1.12,8.28,6,2,9.26,1.94,6.6-.21,9.43,1.3c1.92,1,3.53,2.79,5.69,3.1,3.88.56,6.81-3.77,10.67-4.4,5.39-.87,10.12,5.62,15.42,4.3,3.19-.8,5.67-4.33,8.9-3.72,2.47.46,4,3.24,6.48,3.65,2.93.49,5.31-2.5,8.24-3,4.52-.75,9.8,4.37,13.08,1.17,2.15-2.1.63-6.05-2-7.46s-5.84-1.11-8.84-1.05-6.35-.32-8.33-2.58c-1-1.1-1.49-2.54-2.53-3.56-4.15-4.06-12.72,1.08-16.39-3.41"/><rect class="cls-8" x="94.75" y="151.44" width="88.53" height="13.98" rx="6.99" ry="6.99"/><g class="cls-11"><ellipse class="cls-9" cx="138.46" cy="150.66" rx="48.15" ry="31.06"/></g><path class="cls-8" d="M150.92,132.75a1.5,1.5,0,0,0,0-3,1.5,1.5,0,0,0,0,3Z"/><path class="cls-8" d="M123,138.44a1.5,1.5,0,0,0,0-3,1.5,1.5,0,0,0,0,3Z"/><path class="cls-8" d="M134.87,148.8a1.5,1.5,0,0,0,0-3,1.5,1.5,0,0,0,0,3Z"/><path class="cls-8" d="M130.73,128.61a1.5,1.5,0,0,0,0-3,1.5,1.5,0,0,0,0,3Z"/><path class="cls-8" d="M167,142.07a1.5,1.5,0,0,0,0-3,1.5,1.5,0,0,0,0,3Z"/><path class="cls-8" d="M153.51,142.59a1.5,1.5,0,0,0,0-3,1.5,1.5,0,0,0,0,3Z"/><path class="cls-8" d="M141.09,138.44a1.5,1.5,0,0,0,0-3,1.5,1.5,0,0,0,0,3Z"/><path class="cls-8" d="M110,134.82a1.5,1.5,0,0,0,0-3,1.5,1.5,0,0,0,0,3Z"/><path class="cls-8" d="M115.72,148.28a1.5,1.5,0,0,0,0-3,1.5,1.5,0,0,0,0,3Z"/><path class="cls-8" d="M103.81,141.55a1.5,1.5,0,0,0,0-3,1.5,1.5,0,0,0,0,3Z"/><path class="cls-8" d="M98.11,146.21a1.5,1.5,0,0,0,0-3,1.5,1.5,0,0,0,0,3Z"/><path class="cls-8" d="M175.26,147.76a1.5,1.5,0,0,0,0-3,1.5,1.5,0,0,0,0,3Z"/><path class="cls-8" d="M161.8,130.68a1.5,1.5,0,0,0,0-3,1.5,1.5,0,0,0,0,3Z"/></g></g></svg>